HIERARCHY
ROOT Bip001_Pelvis
{
  OFFSET 34.4345 95.6767 -26.8758
  CHANNELS 6 Xposition Yposition Zposition Zrotation Xrotation Yrotation
  JOINT Bip001_Spine
  {
    OFFSET 1.4188e-005 10.2191 -0.0116013
    CHANNELS 3 Zrotation Xrotation Yrotation
    JOINT Bip001_L_Thigh
    {
      OFFSET 11.0458 -10.2192 0.0116197
      CHANNELS 3 Zrotation Xrotation Yrotation
      JOINT Bip001_L_Calf
      {
        OFFSET -0.707118 -44.0221 0.360014
        CHANNELS 3 Zrotation Xrotation Yrotation
        JOINT Bip001_L_Foot
        {
          OFFSET -0.651902 -40.5938 -3.56146
          CHANNELS 3 Zrotation Xrotation Yrotation
          JOINT Bip001_L_Toe0
          {
            OFFSET 0.0530839 -10.2181 13.1504
            CHANNELS 3 Zrotation Xrotation Yrotation
            End Site
            {
              OFFSET -1.02532e-005 0 7.55606
            }
          }
        }
      }
    }
    JOINT Bip001_R_Thigh
    {
      OFFSET -11.0458 -10.2191 0.0115893
      CHANNELS 3 Zrotation Xrotation Yrotation
      JOINT Bip001_R_Calf
      {
        OFFSET 0.706994 -44.0221 0.35984
        CHANNELS 3 Zrotation Xrotation Yrotation
        JOINT Bip001_R_Foot
        {
          OFFSET 0.651786 -40.5938 -3.5613
          CHANNELS 3 Zrotation Xrotation Yrotation
          JOINT Bip001_R_Toe0
          {
            OFFSET -0.0531479 -10.2181 13.1504
            CHANNELS 3 Zrotation Xrotation Yrotation
            End Site
            {
              OFFSET -1.02894e-005 0 7.55606
            }
          }
        }
      }
    }
    JOINT Bip001_Spine1
    {
      OFFSET 1.87041e-005 14.5736 1.08638
      CHANNELS 3 Zrotation Xrotation Yrotation
      JOINT Bip001_Spine2
      {
        OFFSET 2.24614e-005 14.5058 -1.69078
        CHANNELS 3 Zrotation Xrotation Yrotation
        JOINT Bip001_Neck
        {
          OFFSET 2.20278e-005 15.3945 -0.489414
          CHANNELS 3 Zrotation Xrotation Yrotation
          JOINT Bip001_L_Clavicle
          {
            OFFSET 6.06036 -0.000579998 0.00836775
            CHANNELS 3 Zrotation Xrotation Yrotation
            JOINT Bip001_L_UpperArm
            {
              OFFSET 11.5509 -0.0600302 0.00193952
              CHANNELS 3 Zrotation Xrotation Yrotation
              JOINT Bip001_L_Forearm
              {
                OFFSET 25.9523 0.0806089 -2.15551
                CHANNELS 3 Zrotation Xrotation Yrotation
                JOINT Bip001_L_Hand
                {
                  OFFSET 32.2475 0.153767 1.63968
                  CHANNELS 3 Zrotation Xrotation Yrotation
                  JOINT Bip001_L_Finger0
                  {
                    OFFSET 6.04639 -2.20976 5.90322
                    CHANNELS 3 Zrotation Xrotation Yrotation
                    End Site
                    {
                      OFFSET 4.22375 -1.43895 0.606485
                    }
                  }
                  JOINT Bip001_L_Finger1
                  {
                    OFFSET 11.0826 -0.704819 -0.198153
                    CHANNELS 3 Zrotation Xrotation Yrotation
                    End Site
                    {
                      OFFSET 6.20027 -0.397518 -0.0787166
                    }
                  }
                }
              }
            }
          }
          JOINT Bip001_R_Clavicle
          {
            OFFSET -6.06037 -0.000563197 0.00835105
            CHANNELS 3 Zrotation Xrotation Yrotation
            JOINT Bip001_R_UpperArm
            {
              OFFSET -11.5509 -0.0599978 0.00190698
              CHANNELS 3 Zrotation Xrotation Yrotation
              JOINT Bip001_R_Forearm
              {
                OFFSET -25.9523 0.0806822 -2.15589
                CHANNELS 3 Zrotation Xrotation Yrotation
                JOINT Bip001_R_Hand
                {
                  OFFSET -32.2475 0.153859 1.63989
                  CHANNELS 3 Zrotation Xrotation Yrotation
                  JOINT Bip001_R_Finger0
                  {
                    OFFSET -6.04641 -2.20976 5.90317
                    CHANNELS 3 Zrotation Xrotation Yrotation
                    End Site
                    {
                      OFFSET -4.22376 -1.43895 0.60647
                    }
                  }
                  JOINT Bip001_R_Finger1
                  {
                    OFFSET -11.0826 -0.704794 -0.198182
                    CHANNELS 3 Zrotation Xrotation Yrotation
                    End Site
                    {
                      OFFSET -6.20028 -0.397504 -0.0787333
                    }
                  }
                }
              }
            }
          }
          JOINT Bip001_Head
          {
            OFFSET 1.09673e-005 11.2744 2.05948
            CHANNELS 3 Zrotation Xrotation Yrotation
            End Site
            {
              OFFSET 2.89576e-005 20.8808 -2.77728e-005
            }
          }
        }
      }
    }
  }
}
MOTION
Frames:	8
Frame Time:	0.04
32.5478 95.8382 -29.1642 0.025866 -1.65299 0.699916 -0.133913 2.30534 -0.192778 6.25647 0.134401 9.27541 -0.214125 6.19801 -0.01586 0.543012 -3.924 0.0135686 1.19363 -4.1799 -0.759157 -4.09884 -0.842582 -1.85773 0.146224 8.87443 -0.338003 -5.22922 -8.43248 1.58686 2.43236 -8.18398 2.53157 -0.251236 4.62485 -0.369999 -0.25123 4.62484 -0.369999 3.08387 -3.02099 -1.6057 -27.2121 4.69964 -2.70602 -55.4622 40.2356 3.59915 12.5992 -9.12686 -25.0845 6.84087 0.783196 -1.67668 -1.59028e-015 0 -0 1.59028e-015 -3.18056e-015 -0 21.8415 11.2959 21.7791 61.6237 29.7931 -8.8359 -23.6619 7.87368 15.2899 0.791481 -8.04998 5.04267 6.36111e-015 0 -3.18055e-015 6.36111e-015 -3.18056e-015 -3.18055e-015 -2.31638 0.166755 -0.220384 
32.5866 95.8449 -29.1434 0.0498908 -1.64974 0.699914 -0.133913 2.30534 -0.192778 6.08788 0.142802 10.1604 0.0878219 6.165 -1.00252 0.633314 -3.82169 0.0133731 1.19025 -4.3187 -0.725262 -4.13765 -0.829977 -1.87625 0.129123 8.85332 -0.323917 -5.24219 -8.41289 1.57472 2.43834 -8.22513 2.56072 -0.26414 4.61577 -0.369994 -0.264055 4.61577 -0.369994 3.10665 -3.01694 -1.62705 -27.247 4.67474 -2.70592 -55.3604 40.2371 3.55242 12.6252 -9.01874 -25.0795 6.88329 0.64593 -1.81388 1.59028e-015 -6.36111e-015 -0 1.59028e-015 -3.18056e-015 -0 21.8121 11.3073 21.8324 61.5768 29.7918 -8.77053 -23.6837 7.92984 15.2405 0.817508 -8.06018 4.99509 1.76556e-031 3.18055e-015 -3.18055e-015 1.59028e-015 0 -3.18055e-015 -2.3123 0.2869 -0.220674 
32.6209 95.8432 -29.1096 0.0462185 -1.65308 0.702914 -0.133814 2.29905 -0.195761 6.06463 0.217827 9.66147 -0.00695904 6.05678 -0.522421 1.00953 -3.57862 0.0107586 1.35668 -4.52864 -0.869816 -4.14484 -0.778784 -1.86972 0.105929 8.81808 -0.344655 -5.23131 -8.41101 1.5999 2.4383 -8.22958 2.55843 -0.264909 4.59854 -0.386324 -0.265158 4.59855 -0.386444 3.11045 -2.96116 -1.62707 -27.2943 4.62401 -2.72074 -55.2771 40.1595 3.58748 12.5824 -9.00945 -25.1394 6.85309 0.678434 -1.8114 1.59028e-015 -6.36111e-015 3.18055e-015 3.18055e-015 -6.36111e-015 3.18055e-015 21.8318 11.2631 21.8579 61.4804 29.8005 -8.76989 -23.7371 7.91676 15.2889 0.741732 -8.044 4.99149 1.59028e-015 -3.18055e-015 -1.59028e-015 3.18055e-015 -6.36111e-015 -1.59028e-015 -2.27946 0.373371 -0.225399 
32.6031 95.8438 -29.0259 -0.0684613 -1.83109 0.723515 -0.117101 2.31935 -0.206197 6.25395 0.337228 10.3401 -0.0169519 6.29764 -1.17119 0.697418 -3.97009 0.0138809 1.21075 -4.30609 -0.767579 -3.98903 -0.459456 -1.95868 0.00915559 8.59517 -0.293516 -5.20382 -8.31588 1.6582 2.44034 -8.2577 2.56137 -0.226075 4.63909 -0.408145 -0.226117 4.63909 -0.408147 3.05466 -2.95364 -1.65101 -27.2698 4.61027 -2.72582 -55.295 40.0167 3.72306 12.6716 -8.7679 -25.0855 6.82412 0.565618 -1.81504 1.59028e-015 6.36111e-015 -0 0 6.36111e-015 -0 21.8791 11.2342 21.7837 61.3738 29.8025 -8.68511 -23.7656 8.02307 15.302 0.355621 -8.17317 4.85808 -0 -3.18055e-015 -0 -1.59028e-015 -3.18056e-015 -1.59028e-015 -2.2567 0.601419 -0.265311 
32.6241 95.848 -29.022 -0.111171 -1.79097 0.789919 -0.110974 2.30034 -0.229869 6.30187 0.244957 10.3644 -0.0174391 6.44836 -1.18273 0.578296 -4.1194 0.015654 1.18446 -4.21122 -0.749246 -3.95739 -0.416915 -1.94323 0.0100974 8.47885 -0.315138 -5.22328 -8.25973 1.59807 2.44172 -8.24947 2.5692 -0.213144 4.59656 -0.455666 -0.212548 4.59655 -0.455741 3.01416 -2.85783 -1.67219 -27.2308 4.52119 -2.76002 -55.3122 40.008 3.8066 12.5882 -8.85351 -25.0114 6.96802 0.638098 -1.85819 7.06225e-031 6.36111e-015 -6.36111e-015 -4.77083e-015 3.18056e-015 -6.36111e-015 21.9325 11.1479 21.8048 61.2292 29.6106 -8.68017 -23.8331 8.06029 15.3625 0.0890904 -8.3582 4.81288 -0 -3.18055e-015 -0 1.59028e-015 -3.18056e-015 -0 -2.32407 0.823122 -0.275232 
32.6363 95.8505 -29.0002 -0.158827 -1.82491 0.812758 -0.108256 2.30217 -0.243779 6.36534 0.240385 10.3156 -0.049287 6.55418 -1.13462 0.550078 -4.22504 0.0172125 1.15963 -4.17337 -0.723531 -3.90629 -0.315088 -2.0163 -0.0200089 8.37583 -0.319775 -5.19889 -8.21383 1.67801 2.44269 -8.24235 2.57243 -0.207795 4.6033 -0.485395 -0.208482 4.60331 -0.485197 3.02146 -2.76647 -1.63186 -27.2212 4.46149 -2.82907 -55.2419 40.0983 3.76738 12.6114 -8.73272 -24.8262 6.85493 0.607333 -1.81375 7.95139e-015 0 -3.18055e-015 6.36111e-015 -6.36111e-015 -3.18055e-015 21.9366 11.0274 21.7337 61.0671 29.5561 -8.66128 -23.8471 7.70794 15.3647 0.122201 -8.44979 4.87609 1.59028e-015 1.27222e-014 3.18055e-015 3.18055e-015 9.54167e-015 1.59028e-015 -2.32782 0.941967 -0.229228 
32.6386 95.8492 -28.9945 -0.221567 -1.79069 0.79309 -0.105674 2.29212 -0.249411 6.42925 0.237834 10.1785 -0.139679 6.49584 -1.02806 1.02939 -3.93491 0.0186121 1.35637 -4.48933 -0.871023 -3.84262 -0.289253 -2.00717 -0.0269618 8.26402 -0.318264 -5.19749 -8.16601 1.68691 2.44392 -8.24082 2.57464 -0.202082 4.58468 -0.491797 -0.202034 4.58469 -0.491912 3.05945 -2.68696 -1.63039 -27.2498 4.38941 -2.86867 -55.1542 40.1566 3.71552 12.5122 -8.81977 -24.7166 6.85771 0.729666 -1.69366 -3.18055e-015 6.36111e-015 3.18055e-015 0 3.18056e-015 -0 21.9059 10.9508 21.7479 60.9802 29.4283 -8.74086 -23.9496 7.59003 15.3362 0.031208 -8.54625 4.9 6.36111e-015 6.36111e-015 -1.59028e-015 3.18055e-015 3.18056e-015 -0 -2.33986 1.07516 -0.209746 
32.618 95.8486 -28.9983 -0.352284 -1.75643 0.772218 -0.0910087 2.28329 -0.255008 6.62053 0.092612 10.0433 -0.194057 6.79365 -0.820501 0.682893 -4.28739 0.0199409 1.19903 -4.23697 -0.750829 -3.69658 -0.231958 -2.19998 -0.0976597 8.068 -0.263014 -5.14959 -8.08427 1.84048 2.44637 -8.27395 2.5739 -0.172067 4.56696 -0.506999 -0.172057 4.56695 -0.506991 3.03938 -2.59769 -1.61551 -27.2313 4.30658 -2.88515 -55.1351 40.1746 3.67761 12.483 -8.92676 -24.5886 6.8566 0.71746 -1.58733 -1.59028e-015 3.18055e-015 -0 -3.18055e-015 3.18056e-015 -3.18055e-015 21.9838 10.8748 21.7587 60.8139 29.4097 -8.89905 -23.9859 7.50445 15.3867 -0.155462 -8.67446 4.90173 -0 -3.18055e-015 -0 -1.59028e-015 -3.18056e-015 1.59028e-015 -2.32008 1.11995 -0.203428 
